<?xml version="1.0" encoding="UTF-8"?>
<!DOCTYPE svg PUBLIC "-//W3C//DTD SVG 1.1//EN" "http://www.w3.org/Graphics/SVG/1.1/DTD/svg11.dtd">
<svg version="1.1" xmlns="http://www.w3.org/2000/svg" xmlns:xlink="http://www.w3.org/1999/xlink" x="0" y="0" width="1312.5" height="752.5" viewBox="0, 0, 1312.5, 752.5">
  <defs>
    <clipPath id="Clip_1">
      <path d="M1089.25,83.875 L1086.752,222.758 L1129.68,336.365 C1129.68,336.365 215.545,341.428 200.427,333.853 C185.26,326.295 202.925,293.46 202.925,293.46 L132.225,230.335 L334.232,15.688 L1089.25,83.875 z"/>
    </clipPath>
  </defs>
  <g id="Layer_1">
    <path d="M662.505,604.045 L64.057,604.045 C71.617,604.045 81.725,689.915 81.725,689.915 C81.725,689.915 81.725,725.265 117.057,730.327 C147.642,734.67 540.037,731.487 646.105,730.54 C752.205,731.487 1144.585,734.67 1175.135,730.327 C1210.468,725.265 1210.468,689.915 1210.468,689.915 C1210.468,689.915 1220.56,604.045 1228.17,604.045 L662.505,604.045" fill="#F6CE9E"/>
    <path d="M662.505,604.045 L64.057,604.045 C71.617,604.045 81.725,689.915 81.725,689.915 C81.725,689.915 81.725,725.265 117.057,730.327 C147.642,734.67 540.037,731.487 646.105,730.54 C752.205,731.487 1144.585,734.67 1175.135,730.327 C1210.468,725.265 1210.468,689.915 1210.468,689.915 C1210.468,689.915 1220.56,604.045 1228.17,604.045 L662.505,604.045 z" fill-opacity="0" stroke="#493020" stroke-width="22.5" stroke-linecap="round" stroke-linejoin="round"/>
    <path d="M1292.98,566.975 C1292.98,598.615 1267.368,624.26 1235.728,624.26 L74.115,624.26 C42.525,624.26 16.86,598.615 16.86,566.975 L183.553,249.705 C195.365,213.492 234.428,192.452 266.068,192.452 L1084.205,192.452 C1115.845,192.452 1153.235,215.182 1164.235,249.705 L1292.98,566.975" fill="#F6CE9E"/>
    <path d="M1292.98,566.975 C1292.98,598.615 1267.368,624.26 1235.728,624.26 L74.115,624.26 C42.525,624.26 16.86,598.615 16.86,566.975 L183.553,249.705 C195.365,213.492 234.428,192.452 266.068,192.452 L1084.205,192.452 C1115.845,192.452 1153.235,215.182 1164.235,249.705 L1292.98,566.975 z" fill-opacity="0" stroke="#493020" stroke-width="22.5" stroke-linecap="round" stroke-linejoin="round"/>
    <path d="M166.75,390.26 L80.897,551.4 C80.897,551.4 79.212,575.833 114.545,578.893 C149.927,581.968 767.747,575.833 767.747,575.833 L735.755,406.325 C735.755,406.325 710.492,372.738 680.208,378.853 C649.9,384.953 648.215,392.58 648.215,392.58 C648.215,392.58 619.615,372.718 601.07,377.308 C582.575,381.893 565.737,391.033 565.737,391.033 C565.737,391.033 537.085,366.653 521.967,369.695 C506.815,372.718 488.305,386.463 488.305,386.463 C488.305,386.463 476.477,362.065 449.582,366.635 C422.652,371.205 412.545,389.525 412.545,389.525 C412.545,389.525 395.72,368.148 377.16,372.718 C358.667,377.308 350.23,395.64 350.23,395.64 C350.23,395.64 333.39,372.718 303.12,372.718 C272.797,372.718 261.02,392.58 261.02,392.58 C261.02,392.58 257.63,371.205 225.687,371.205 C193.697,371.205 166.75,390.26 166.75,390.26" fill="#FFFFFE"/>
    <path d="M166.75,390.26 L80.897,551.4 C80.897,551.4 79.212,575.833 114.545,578.893 C149.927,581.968 767.747,575.833 767.747,575.833 L735.755,406.325 C735.755,406.325 710.492,372.738 680.208,378.853 C649.9,384.953 648.215,392.58 648.215,392.58 C648.215,392.58 619.615,372.718 601.07,377.308 C582.575,381.893 565.737,391.033 565.737,391.033 C565.737,391.033 537.085,366.653 521.967,369.695 C506.815,372.718 488.305,386.463 488.305,386.463 C488.305,386.463 476.477,362.065 449.582,366.635 C422.652,371.205 412.545,389.525 412.545,389.525 C412.545,389.525 395.72,368.148 377.16,372.718 C358.667,377.308 350.23,395.64 350.23,395.64 C350.23,395.64 333.39,372.718 303.12,372.718 C272.797,372.718 261.02,392.58 261.02,392.58 C261.02,392.58 257.63,371.205 225.687,371.205 C193.697,371.205 166.75,390.26 166.75,390.26 z" fill-opacity="0" stroke="#493020" stroke-width="22.5" stroke-linecap="round" stroke-linejoin="round"/>
    <path d="M228.2,268.197 C228.2,268.197 185.26,326.295 200.428,333.852 C215.545,341.427 1129.68,336.365 1129.68,336.365 L1086.753,222.757 L288.795,207.59" fill="#C6A98C"/>
    <path d="M228.2,268.197 C228.2,268.197 185.26,326.295 200.428,333.852 C215.545,341.427 1129.68,336.365 1129.68,336.365 L1086.753,222.757 L288.795,207.59" fill-opacity="0" stroke="#493020" stroke-width="22.5" stroke-linecap="round" stroke-linejoin="round"/>
    <path d="M495.038,472.737 C495.038,491.352 470.5,506.417 440.318,506.417 C410.082,506.417 385.598,491.352 385.598,472.737 C385.598,454.175 410.082,439.095 440.318,439.095 C470.5,439.095 495.038,454.175 495.038,472.737" fill="#DD4347"/>
    <path d="M495.038,472.737 C495.038,491.352 470.5,506.417 440.318,506.417 C410.082,506.417 385.598,491.352 385.598,472.737 C385.598,454.175 410.082,439.095 440.318,439.095 C470.5,439.095 495.038,454.175 495.038,472.737 z" fill-opacity="0" stroke="#493020" stroke-width="22.5" stroke-linecap="round" stroke-linejoin="round"/>
    <path d="M781.208,389.418 L814.027,571.208 C814.027,571.208 1207.955,576.273 1213,571.208 C1218.062,566.185 1142.3,384.353 1142.3,384.353 L781.208,389.418" fill="#D6C1A0"/>
    <path d="M781.208,389.418 L814.027,571.208 C814.027,571.208 1207.955,576.273 1213,571.208 C1218.062,566.185 1142.3,384.353 1142.3,384.353 L781.208,389.418 z" fill-opacity="0" stroke="#493020" stroke-width="22.5" stroke-linecap="round" stroke-linejoin="round"/>
    <path d="M1126.215,404.27 L1126.215,451.575 C1126.215,451.575 1102.223,485.465 1017.533,486.87 C927.848,488.365 903.15,448.762 903.15,448.762 L903.15,409.562 C903.15,409.562 935.443,459.695 1011.695,455.442 C1087.948,451.222 1126.215,404.27 1126.215,404.27" fill="#D6C1A0"/>
    <path d="M1126.215,404.27 L1126.215,451.575 C1126.215,451.575 1102.223,485.465 1017.533,486.87 C927.848,488.365 903.15,448.762 903.15,448.762 L903.15,409.562 C903.15,409.562 935.443,459.695 1011.695,455.442 C1087.948,451.222 1126.215,404.27 1126.215,404.27 z" fill-opacity="0" stroke="#493020" stroke-width="22.5" stroke-linecap="round" stroke-linejoin="round"/>
    <path d="M1084.205,412.83 C1069.878,412.83 1058.277,407.027 1058.277,399.875 C1058.277,392.688 1069.878,386.887 1084.205,386.887 C1098.53,386.887 1110.167,392.688 1110.167,399.875 C1110.167,407.027 1098.53,412.83 1084.205,412.83 z M1060.912,438.53 C1049.662,438.53 1040.522,433.52 1040.522,427.385 C1040.522,421.253 1049.662,416.295 1060.912,416.295 C1072.2,416.295 1081.302,421.253 1081.302,427.385 C1081.302,433.52 1072.2,438.53 1060.912,438.53 z M1000.055,453.332 C980.617,453.332 964.848,446.705 964.848,438.53 C964.848,430.34 980.617,423.693 1000.055,423.693 C1019.465,423.693 1035.25,430.34 1035.25,438.53 C1035.25,446.705 1019.465,453.332 1000.055,453.332 z M918.492,409.947 C918.492,402.6 931.4,396.695 947.357,396.695 C963.268,396.695 976.223,402.6 976.223,409.947 C976.223,417.225 963.268,423.167 947.357,423.167 C931.4,423.167 918.492,417.225 918.492,409.947 z M1008.492,370.223 C1028.078,370.223 1044.003,377.112 1044.003,385.568 C1044.003,394.057 1028.078,400.913 1008.492,400.913 C988.93,400.913 973.023,394.057 973.023,385.568 C973.023,377.112 988.93,370.223 1008.492,370.223 z M1014.682,358.39 C953.073,358.39 903.15,381.312 903.15,409.562 C903.15,437.827 953.073,460.75 1014.682,460.75 C1076.295,460.75 1126.215,437.827 1126.215,409.562 C1126.215,381.312 1076.295,358.39 1014.682,358.39" fill="#D6C1A0"/>
    <path d="M1084.205,412.83 C1069.878,412.83 1058.277,407.027 1058.277,399.875 C1058.277,392.688 1069.878,386.887 1084.205,386.887 C1098.53,386.887 1110.167,392.688 1110.167,399.875 C1110.167,407.027 1098.53,412.83 1084.205,412.83 z M1060.912,438.53 C1049.662,438.53 1040.522,433.52 1040.522,427.385 C1040.522,421.253 1049.662,416.295 1060.912,416.295 C1072.2,416.295 1081.302,421.253 1081.302,427.385 C1081.302,433.52 1072.2,438.53 1060.912,438.53 z M1000.055,453.332 C980.617,453.332 964.848,446.705 964.848,438.53 C964.848,430.34 980.617,423.693 1000.055,423.693 C1019.465,423.693 1035.25,430.34 1035.25,438.53 C1035.25,446.705 1019.465,453.332 1000.055,453.332 z M918.492,409.947 C918.492,402.6 931.4,396.695 947.357,396.695 C963.268,396.695 976.223,402.6 976.223,409.947 C976.223,417.225 963.268,423.167 947.357,423.167 C931.4,423.167 918.492,417.225 918.492,409.947 z M1008.492,370.223 C1028.078,370.223 1044.003,377.112 1044.003,385.568 C1044.003,394.057 1028.078,400.913 1008.492,400.913 C988.93,400.913 973.023,394.057 973.023,385.568 C973.023,377.112 988.93,370.223 1008.492,370.223 z M1014.682,358.39 C953.073,358.39 903.15,381.312 903.15,409.562 C903.15,437.827 953.073,460.75 1014.682,460.75 C1076.295,460.75 1126.215,437.827 1126.215,409.562 C1126.215,381.312 1076.295,358.39 1014.682,358.39 z" fill-opacity="0" stroke="#493020" stroke-width="22.5" stroke-linecap="round" stroke-linejoin="round"/>
    <path d="M1101.305,421.392 C1101.305,421.392 1035.6,417.225 1000.657,453.207 C971.967,482.755 968.312,529.847 989.722,543.91 C1011.13,557.972 1070.545,549.112 1089.83,552.753 C1109.115,556.407 1194.068,565.795 1202.417,537.635 C1210.767,509.495 1198.762,427.65 1101.305,421.392" fill="#7B4F38"/>
    <path d="M1101.305,421.392 C1101.305,421.392 1035.6,417.225 1000.657,453.207 C971.967,482.755 968.312,529.847 989.722,543.91 C1011.13,557.972 1070.545,549.112 1089.83,552.753 C1109.115,556.407 1194.068,565.795 1202.417,537.635 C1210.767,509.495 1198.762,427.65 1101.305,421.392 z" fill-opacity="0" stroke="#493020" stroke-width="22.5" stroke-linecap="round" stroke-linejoin="round"/>
    <path d="M1138.645,443.453 C1136.887,443.365 1087.947,459.168 1087.947,459.168 L1039.205,440.48 L1071.107,466.55 L993.905,488.645 L1088.247,474.055 L1174.205,497.19 L1105.07,466.673 L1138.645,443.453" fill="#D6B68E"/>
    <g clip-path="url(#Clip_1)">
      <path d="M247.185,300.505 C247.185,300.505 191.007,285.777 200.2,249.39 C209.34,213.002 252.935,212.02 252.935,212.02 C252.935,212.02 229.115,180.307 256.362,163.855 C287.3,145.167 306.812,162.855 306.812,162.855 C306.812,162.855 277.068,100.1 342.32,71.41 C389.29,50.775 413.372,82.237 413.372,82.237 C413.372,82.237 429.47,56.682 467.262,56.682 C505.092,56.682 532.602,83.205 532.602,83.205 C532.602,83.205 560.112,63.537 616.275,73.38 C672.438,83.205 716.03,131.39 716.03,131.39 C716.03,131.39 733.17,91.097 771.013,100.942 C808.842,110.77 826.633,225.27 826.633,225.27 C826.633,225.27 707.98,254.275 596.763,277.882 C485.617,301.457 294.155,325.08 247.185,300.505" fill="#73BA5C"/>
      <path d="M247.185,300.505 C247.185,300.505 191.007,285.777 200.2,249.39 C209.34,213.002 252.935,212.02 252.935,212.02 C252.935,212.02 229.115,180.307 256.362,163.855 C287.3,145.167 306.812,162.855 306.812,162.855 C306.812,162.855 277.068,100.1 342.32,71.41 C389.29,50.775 413.372,82.237 413.372,82.237 C413.372,82.237 429.47,56.682 467.262,56.682 C505.092,56.682 532.602,83.205 532.602,83.205 C532.602,83.205 560.112,63.537 616.275,73.38 C672.438,83.205 716.03,131.39 716.03,131.39 C716.03,131.39 733.17,91.097 771.013,100.942 C808.842,110.77 826.633,225.27 826.633,225.27 C826.633,225.27 707.98,254.275 596.763,277.882 C485.617,301.457 294.155,325.08 247.185,300.505 z" fill-opacity="0" stroke="#493020" stroke-width="22.5" stroke-linecap="round" stroke-linejoin="round"/>
      <path d="M297.582,245.435 L392.767,253.327" fill="#73BA5C"/>
      <path d="M297.582,245.435 L392.767,253.327" fill-opacity="0" stroke="#493020" stroke-width="22.5" stroke-linecap="round" stroke-linejoin="round"/>
      <path d="M342.32,152.043 L409.995,207.59" fill="#73BA5C"/>
      <path d="M342.32,152.043 L409.995,207.59" fill-opacity="0" stroke="#493020" stroke-width="22.5" stroke-linecap="round" stroke-linejoin="round"/>
      <path d="M266.697,241.76 C260.895,236.242 273.5,220.7 278.687,218.415 C287.125,214.725 297.005,210.085 305.97,208.47 C307.865,208.117 311.52,209.173 313.49,208.52 C318.275,206.85 321.54,202.667 327.062,201.753 C330.505,201.175 334.622,202.72 337.31,202.42 C342.055,201.893 346.625,198.677 351.497,198.59 C354.8,198.5 358.102,200.275 361.127,200.135 C367.595,199.837 374.525,197.007 380.78,196.442 C385.422,196.022 389.955,195.387 394.615,196.165 C399.94,197.077 401.732,196.617 405.99,196.197 C415.407,195.25 423.705,195.637 432.355,199.397 C438.91,189.202 458.335,194.827 467.337,197.673 C477.355,200.875 484.74,196.145 495.462,198.062 C501.892,199.22 507.165,204.317 513.09,205.62 C515.602,206.147 517.537,205.285 520.385,205.34 C527.767,205.372 545.485,203.298 544.205,215.393 C548.16,216.643 554.1,218.24 556.685,221.688 C558.917,224.73 557.387,227.592 558.917,230.158 C561.255,234.113 566.09,235.925 568.198,240.265 C569.465,242.85 568.762,245.837 569.78,248.475 C571.325,252.73 574.915,254.962 575.09,260.288 C575.142,262.785 573.735,264.72 573.647,266.72 C573.332,276.003 577.128,285.565 565.912,289.642 C565.122,300.505 564.068,311.052 550.48,312.707 C550.18,317.19 551.712,322.777 548.722,326.487 C545.698,330.32 535.89,330.777 531.372,330.512 C528.91,340.18 518.312,341.06 510.365,343.645 C517.785,355.14 499.205,353.1 492.787,354.402 C487.25,355.525 482.505,359.025 475.65,358.99 C471.43,358.973 467.74,358.022 462.692,358.235 C445.29,358.99 429.117,349.547 412.242,348.02 C384.997,345.542 359.685,332.605 336.027,319.455 C312.825,306.535 276.437,288.853 269.195,260.253 C267.965,255.455 267.752,249.812 269.017,245.452 C270.337,240.777 274.43,237.365 273.625,231.74" fill="#A87E4F"/>
      <path d="M266.697,241.76 C260.895,236.242 273.5,220.7 278.687,218.415 C287.125,214.725 297.005,210.085 305.97,208.47 C307.865,208.117 311.52,209.173 313.49,208.52 C318.275,206.85 321.54,202.667 327.062,201.753 C330.505,201.175 334.622,202.72 337.31,202.42 C342.055,201.893 346.625,198.677 351.497,198.59 C354.8,198.5 358.102,200.275 361.127,200.135 C367.595,199.837 374.525,197.007 380.78,196.442 C385.422,196.022 389.955,195.387 394.615,196.165 C399.94,197.077 401.732,196.617 405.99,196.197 C415.407,195.25 423.705,195.637 432.355,199.397 C438.91,189.202 458.335,194.827 467.337,197.673 C477.355,200.875 484.74,196.145 495.462,198.062 C501.892,199.22 507.165,204.317 513.09,205.62 C515.602,206.147 517.537,205.285 520.385,205.34 C527.767,205.372 545.485,203.298 544.205,215.393 C548.16,216.643 554.1,218.24 556.685,221.688 C558.917,224.73 557.387,227.592 558.917,230.158 C561.255,234.113 566.09,235.925 568.198,240.265 C569.465,242.85 568.762,245.837 569.78,248.475 C571.325,252.73 574.915,254.962 575.09,260.288 C575.142,262.785 573.735,264.72 573.647,266.72 C573.332,276.003 577.128,285.565 565.912,289.642 C565.122,300.505 564.068,311.052 550.48,312.707 C550.18,317.19 551.712,322.777 548.722,326.487 C545.698,330.32 535.89,330.777 531.372,330.512 C528.91,340.18 518.312,341.06 510.365,343.645 C517.785,355.14 499.205,353.1 492.787,354.402 C487.25,355.525 482.505,359.025 475.65,358.99 C471.43,358.973 467.74,358.022 462.692,358.235 C445.29,358.99 429.117,349.547 412.242,348.02 C384.997,345.542 359.685,332.605 336.027,319.455 C312.825,306.535 276.437,288.853 269.195,260.253 C267.965,255.455 267.752,249.812 269.017,245.452 C270.337,240.777 274.43,237.365 273.625,231.74" fill-opacity="0" stroke="#493020" stroke-width="22.5" stroke-linecap="round" stroke-linejoin="round"/>
      <path d="M247.435,274.137 C234.565,269.675 240.015,253.185 252.707,253.977 C252.847,251.745 251.705,246.417 252.76,244.642 C255.307,240.197 256.927,243.552 260.58,241.78 C267.26,238.527 274.82,228.472 283.08,237.085 C291.782,231.9 303.207,224.73 310.54,237.875 C322.14,234.8 327.115,232.355 332.387,245.592 C336.957,243.727 341.792,245.082 343.937,250.005 C351.072,244.925 356.067,252.975 357.122,259.197 C363.552,256.667 368.16,264.225 369.53,269.465 C375.365,265.472 380.15,271.027 382.257,276.372 C389.955,271.61 392.732,277.34 398.482,278.042 C403.315,278.64 407.85,277.442 413.247,278.587 C419.312,279.887 416.675,279.397 421.56,278.938 C426.695,278.43 430.385,276.232 436.187,277.938 C439.212,278.815 442.515,282.438 445.502,282.7 C449.51,283.067 453.552,279.31 458.372,279.625 C464.347,280.012 475.95,284.722 478.512,290.54 C479.517,292.845 477.457,296.78 478.55,298.8 C481.097,303.567 490.502,304.32 493.88,309.015 C496.867,313.11 495.512,315.06 496.215,319.455 C496.692,322.2 498.412,326.1 499.027,329.44 C500.735,339.11 493.052,339.652 491.345,345.755 C489.587,352.17 496.567,351.622 488.605,357.442 C484.665,360.345 478.725,360.447 474.155,360.695 C476.405,370.783 463.607,370.255 456.79,370.54 C450.212,370.783 447.047,371.945 440.052,372.682 C434.427,373.245 429.33,371.222 424.145,371.242 C421.772,371.242 421.07,371.945 419.312,372.085 C411.365,372.682 403.315,376.128 396.46,369.762 C390.095,375.688 380.64,375.072 372.992,372.612 C365.382,370.167 361.83,371.117 352.902,370.362 C346.575,369.837 341.125,365.845 335.602,365.017 C333.177,364.665 330.857,365.792 327.817,365.932 C320.382,366.212 313.527,364.895 309.185,358.812 C305.757,361.575 301.927,361.292 297.582,361.275 C288.97,361.135 288.492,357.6 282.165,354.225 C278.072,352.01 272.797,352.522 268.527,350.465 C264.235,348.372 264.31,345.68 262.162,343.52 C259.702,341.007 255.797,339.46 253.162,336.647 C250.035,333.255 249.507,328.685 247.185,325.96 C244.372,322.76 238.045,324.112 238.045,317.102 C238.045,313.39 240.93,310.685 243.705,308.875 C239.7,304.497 237.73,298.17 239.575,292.72 C235.13,291.417 231.262,285.847 233.722,281.222 C235.305,278.255 242.74,276.775 245.112,275.685" fill="#D1AA7A"/>
      <path d="M247.435,274.137 C234.565,269.675 240.015,253.185 252.707,253.977 C252.847,251.745 251.705,246.417 252.76,244.642 C255.307,240.197 256.927,243.552 260.58,241.78 C267.26,238.527 274.82,228.472 283.08,237.085 C291.782,231.9 303.207,224.73 310.54,237.875 C322.14,234.8 327.115,232.355 332.387,245.592 C336.957,243.727 341.792,245.082 343.937,250.005 C351.072,244.925 356.067,252.975 357.122,259.197 C363.552,256.667 368.16,264.225 369.53,269.465 C375.365,265.472 380.15,271.027 382.257,276.372 C389.955,271.61 392.732,277.34 398.482,278.042 C403.315,278.64 407.85,277.442 413.247,278.587 C419.312,279.887 416.675,279.397 421.56,278.938 C426.695,278.43 430.385,276.232 436.187,277.938 C439.212,278.815 442.515,282.438 445.502,282.7 C449.51,283.067 453.552,279.31 458.372,279.625 C464.347,280.012 475.95,284.722 478.512,290.54 C479.517,292.845 477.457,296.78 478.55,298.8 C481.097,303.567 490.502,304.32 493.88,309.015 C496.867,313.11 495.512,315.06 496.215,319.455 C496.692,322.2 498.412,326.1 499.027,329.44 C500.735,339.11 493.052,339.652 491.345,345.755 C489.587,352.17 496.567,351.622 488.605,357.442 C484.665,360.345 478.725,360.447 474.155,360.695 C476.405,370.783 463.607,370.255 456.79,370.54 C450.212,370.783 447.047,371.945 440.052,372.682 C434.427,373.245 429.33,371.222 424.145,371.242 C421.772,371.242 421.07,371.945 419.312,372.085 C411.365,372.682 403.315,376.128 396.46,369.762 C390.095,375.688 380.64,375.072 372.992,372.612 C365.382,370.167 361.83,371.117 352.902,370.362 C346.575,369.837 341.125,365.845 335.602,365.017 C333.177,364.665 330.857,365.792 327.817,365.932 C320.382,366.212 313.527,364.895 309.185,358.812 C305.757,361.575 301.927,361.292 297.582,361.275 C288.97,361.135 288.492,357.6 282.165,354.225 C278.072,352.01 272.797,352.522 268.527,350.465 C264.235,348.372 264.31,345.68 262.162,343.52 C259.702,341.007 255.797,339.46 253.162,336.647 C250.035,333.255 249.507,328.685 247.185,325.96 C244.372,322.76 238.045,324.112 238.045,317.102 C238.045,313.39 240.93,310.685 243.705,308.875 C239.7,304.497 237.73,298.17 239.575,292.72 C235.13,291.417 231.262,285.847 233.722,281.222 C235.305,278.255 242.74,276.775 245.112,275.685" fill-opacity="0" stroke="#493020" stroke-width="22.5" stroke-linecap="round" stroke-linejoin="round"/>
      <path d="M277.492,325.012 C272.497,320.51 265.327,317.027 262.025,310.335 C258.61,303.492 262.602,304.76 262.865,300.438 C263.707,287.78 257.452,274.665 275.875,274.65 C276.312,257.652 288.567,263.927 299.92,266.457 C311.295,268.972 332.915,273.067 337.75,286.427 C347.38,282.787 348.685,291.945 354.762,294.845 C357.65,296.217 362.357,294.46 365.522,295.217 C369.602,296.217 373.292,299.03 376.772,301.07 C383.54,293.967 400.54,299.4 408.625,299.7 C416.587,300.033 420.577,302.6 427.962,305.007 C431.44,306.13 435.345,306.115 439.137,307.397 C443.532,308.875 446.595,312.757 450.74,314.392 C455.91,316.467 459.177,315.622 464.047,320.125 C467.615,323.392 474.822,330.792 471.482,336.472 C469.622,339.602 464.45,339.162 462.415,341.11 C461.712,341.78 462.692,345.315 461.637,346.632 C459.565,349.305 456.312,351.622 453.2,352.855 C445.187,356.017 435.975,354.085 428.187,351.975 C416.147,348.742 404.935,354.857 391.715,352.66 C386.052,351.695 382.75,349.71 377.262,349.69 C368.072,349.602 361.165,350.955 352.375,347.387 C346.097,344.84 346.927,344.152 339.242,343.557 C332.615,343.045 321.84,342.237 318.977,335.135 C312.612,334.908 305.442,337.405 299.115,335.522 C297.142,334.925 296.177,332.27 294.682,331.742 C292.537,330.952 289.937,331.742 287.687,331.022 C282.29,329.23 279.125,325.572 274.43,323.482" fill="#785531"/>
      <path d="M277.492,325.012 C272.497,320.51 265.327,317.027 262.025,310.335 C258.61,303.492 262.602,304.76 262.865,300.438 C263.707,287.78 257.452,274.665 275.875,274.65 C276.312,257.652 288.567,263.927 299.92,266.457 C311.295,268.972 332.915,273.067 337.75,286.427 C347.38,282.787 348.685,291.945 354.762,294.845 C357.65,296.217 362.357,294.46 365.522,295.217 C369.602,296.217 373.292,299.03 376.772,301.07 C383.54,293.967 400.54,299.4 408.625,299.7 C416.587,300.033 420.577,302.6 427.962,305.007 C431.44,306.13 435.345,306.115 439.137,307.397 C443.532,308.875 446.595,312.757 450.74,314.392 C455.91,316.467 459.177,315.622 464.047,320.125 C467.615,323.392 474.822,330.792 471.482,336.472 C469.622,339.602 464.45,339.162 462.415,341.11 C461.712,341.78 462.692,345.315 461.637,346.632 C459.565,349.305 456.312,351.622 453.2,352.855 C445.187,356.017 435.975,354.085 428.187,351.975 C416.147,348.742 404.935,354.857 391.715,352.66 C386.052,351.695 382.75,349.71 377.262,349.69 C368.072,349.602 361.165,350.955 352.375,347.387 C346.097,344.84 346.927,344.152 339.242,343.557 C332.615,343.045 321.84,342.237 318.977,335.135 C312.612,334.908 305.442,337.405 299.115,335.522 C297.142,334.925 296.177,332.27 294.682,331.742 C292.537,330.952 289.937,331.742 287.687,331.022 C282.29,329.23 279.125,325.572 274.43,323.482" fill-opacity="0" stroke="#493020" stroke-width="22.5" stroke-linecap="round" stroke-linejoin="round"/>
      <path d="M272.535,304.603 C272.57,300.858 270.037,292.28 272.497,289.82 C273.802,288.413 281.535,289.028 283.22,289.82 C285.33,290.803 286.105,292.123 286.985,294.478 C287.687,296.288 288.705,301.633 287.865,303.618 C286.81,306.063 287.125,305.113 284.347,305.5 C280.76,306.008 276.717,305.675 273.45,304.515 C273.275,303.9 273.237,303.04 273.325,302.3" fill="#D9A575"/>
      <path d="M272.535,304.603 C272.57,300.858 270.037,292.28 272.497,289.82 C273.802,288.413 281.535,289.028 283.22,289.82 C285.33,290.803 286.105,292.123 286.985,294.478 C287.687,296.288 288.705,301.633 287.865,303.618 C286.81,306.063 287.125,305.113 284.347,305.5 C280.76,306.008 276.717,305.675 273.45,304.515 C273.275,303.9 273.237,303.04 273.325,302.3" fill-opacity="0" stroke="#493020" stroke-width="22.5" stroke-linecap="round" stroke-linejoin="round"/>
      <path d="M312.752,317.733 C315.565,315.308 320.31,307.75 323.775,307.943 C325.76,308.013 330.365,314.203 330.892,316.01 C331.56,318.245 331.07,319.665 329.875,321.935 C328.96,323.658 325.62,327.928 323.597,328.615 C321.087,329.44 321.927,329.055 319.855,327.225 C317.095,324.818 314.722,321.635 313.402,318.4 C313.755,317.84 314.332,317.24 314.985,316.818" fill="#D9A575"/>
      <path d="M312.752,317.733 C315.565,315.308 320.31,307.75 323.775,307.943 C325.76,308.013 330.365,314.203 330.892,316.01 C331.56,318.245 331.07,319.665 329.875,321.935 C328.96,323.658 325.62,327.928 323.597,328.615 C321.087,329.44 321.927,329.055 319.855,327.225 C317.095,324.818 314.722,321.635 313.402,318.4 C313.755,317.84 314.332,317.24 314.985,316.818" fill-opacity="0" stroke="#493020" stroke-width="22.5" stroke-linecap="round" stroke-linejoin="round"/>
      <path d="M364.115,316.223 C366.927,313.763 371.712,306.203 375.155,306.413 C377.125,306.467 381.782,312.67 382.257,314.445 C382.925,316.715 382.435,318.158 381.255,320.367 C380.375,322.128 377.035,326.4 375.015,327.103 C372.465,327.913 373.345,327.508 371.235,325.695 C368.475,323.288 366.087,320.09 364.782,316.853 C365.17,316.293 365.735,315.695 366.365,315.307" fill="#D9A575"/>
      <path d="M364.115,316.223 C366.927,313.763 371.712,306.203 375.155,306.413 C377.125,306.467 381.782,312.67 382.257,314.445 C382.925,316.715 382.435,318.158 381.255,320.367 C380.375,322.128 377.035,326.4 375.015,327.103 C372.465,327.913 373.345,327.508 371.235,325.695 C368.475,323.288 366.087,320.09 364.782,316.853 C365.17,316.293 365.735,315.695 366.365,315.307" fill-opacity="0" stroke="#493020" stroke-width="22.5" stroke-linecap="round" stroke-linejoin="round"/>
      <path d="M387.233,336.753 C390.095,334.31 394.842,326.75 398.305,326.945 C400.24,327.048 404.898,333.238 405.388,335.013 C406.04,337.28 405.6,338.703 404.37,340.935 C403.455,342.678 400.152,346.965 398.13,347.653 C395.58,348.48 396.46,348.073 394.35,346.208 C391.625,343.855 389.217,340.62 387.935,337.405 C388.285,336.858 388.865,336.263 389.465,335.838" fill="#D9A575"/>
      <path d="M387.233,336.753 C390.095,334.31 394.842,326.75 398.305,326.945 C400.24,327.048 404.898,333.238 405.388,335.013 C406.04,337.28 405.6,338.703 404.37,340.935 C403.455,342.678 400.152,346.965 398.13,347.653 C395.58,348.48 396.46,348.073 394.35,346.208 C391.625,343.855 389.217,340.62 387.935,337.405 C388.285,336.858 388.865,336.263 389.465,335.838" fill-opacity="0" stroke="#493020" stroke-width="22.5" stroke-linecap="round" stroke-linejoin="round"/>
      <path d="M435.52,339.653 C435.797,335.91 433.762,327.19 436.325,324.87 C437.767,323.57 445.415,324.573 447.047,325.465 C449.107,326.595 449.81,327.928 450.565,330.355 C451.127,332.22 451.867,337.595 450.915,339.515 C449.757,341.938 450.11,341.008 447.297,341.217 C443.657,341.515 439.702,340.935 436.502,339.603 C436.325,338.967 436.325,338.108 436.45,337.385" fill="#D9A575"/>
      <path d="M435.52,339.653 C435.797,335.91 433.762,327.19 436.325,324.87 C437.767,323.57 445.415,324.573 447.047,325.465 C449.107,326.595 449.81,327.928 450.565,330.355 C451.127,332.22 451.867,337.595 450.915,339.515 C449.757,341.938 450.11,341.008 447.297,341.217 C443.657,341.515 439.702,340.935 436.502,339.603 C436.325,338.967 436.325,338.108 436.45,337.385" fill-opacity="0" stroke="#493020" stroke-width="22.5" stroke-linecap="round" stroke-linejoin="round"/>
      <path d="M548.335,265.403 C551.287,265.825 552.24,270.255 550.76,272.63 C548.862,275.618 542.85,276.423 539.635,276.248 C540.212,281.595 533.885,286.585 530.845,282.805 C532.075,289.768 520.172,288.168 517.485,284.408 M525.695,233.57 C532.777,236.418 528.91,245.47 521.44,244.22 C524.568,250.005 517.785,255.455 512.337,252.165 C513.443,253.275 513.267,254.84 513.883,256.14 C511.282,257.475 506.41,257.933 504.125,256.668 M423.97,250.515 C417.165,258.303 433.197,261.063 436.852,254.7 C435.797,262.485 442.427,258.845 445.715,258.073 C448.805,257.338 449.37,258.215 453.237,258.723 C453.275,257.755 453.412,256.598 453.237,255.648 M468.67,211.965 C470.815,214.075 472.222,216.995 471.38,219.93 C468.67,220.298 465.857,220.49 463.117,220.738 C465.505,226.978 449.685,226.098 446.557,225.325 M378.215,237.123 C375.015,236.155 373.997,232.815 376.51,230.368 C377.915,229.015 382.257,229.948 384.155,229.598 C380.727,221.458 398.605,223.973 401.872,226.325" fill-opacity="0" stroke="#C48F5B" stroke-width="22.5" stroke-linecap="round" stroke-linejoin="round"/>
      <path d="M1078.14,282.365 L1076.77,178.902 L800.792,235.695 L800.265,341.165 C797.278,356.335 811.617,373.685 848.833,374.388 C913.82,375.53 930.835,350.832 978.685,341.888 C1021.537,333.89 1075.415,320.247 1078.14,282.365" fill="#EEC15F"/>
      <path d="M1078.14,282.365 L1076.77,178.902 L800.792,235.695 L800.265,341.165 C797.278,356.335 811.617,373.685 848.833,374.388 C913.82,375.53 930.835,350.832 978.685,341.888 C1021.537,333.89 1075.415,320.247 1078.14,282.365 z" fill-opacity="0" stroke="#493020" stroke-width="22.5" stroke-linecap="round" stroke-linejoin="round"/>
      <path d="M1060.562,156.577 C1060.562,156.577 1038.905,143.042 1009.145,145.062 C979.35,147.085 953.722,170.217 934.703,176.16 C902.27,186.3 837.985,191.067 814.328,209.312 C796.503,223.06 783.883,261.413 848.832,264.105 C913.747,266.81 930.835,240.565 978.685,231.635 C1029.412,222.18 1111.978,192.4 1060.562,156.577" fill="#EEC15F"/>
      <path d="M1060.562,156.577 C1060.562,156.577 1038.905,143.042 1009.145,145.062 C979.35,147.085 953.722,170.217 934.703,176.16 C902.27,186.3 837.985,191.067 814.328,209.312 C796.503,223.06 783.883,261.413 848.832,264.105 C913.747,266.81 930.835,240.565 978.685,231.635 C1029.412,222.18 1111.978,192.4 1060.562,156.577 z" fill-opacity="0" stroke="#493020" stroke-width="22.5" stroke-linecap="round" stroke-linejoin="round"/>
      <path d="M1028.532,156.77 C1028.532,156.77 1014.997,151.795 999.652,158.583 C984.31,165.33 962.262,182.028 945.99,185.653 C929.78,189.22 872.035,199.153 853.982,204.125 C835.95,209.085 808,226.223 819.74,240.638 C831.43,255.085 872.915,255.998 894.132,250.568 C915.33,245.188 947.797,226.223 961.772,223.06 C975.747,219.93 1039.38,206.85 1045.657,199.153 C1051.948,191.505 1037.535,173.013 1014.542,176.16 C991.515,179.323 960.402,197.815 948.237,199.643 C936.072,201.418 880.172,209.085 866.637,216.293 C853.102,223.513 848.13,228.928 858.062,233.43 C867.992,237.965 925.7,220.825 925.7,220.825 C925.7,220.825 868.872,230.318 877.925,223.06 C886.927,215.853 932.452,210.455 945.99,207.748 C959.525,205.043 1008.67,184.773 1018.162,187.443 C1027.602,190.153 1036.165,196.023 1026.285,199.153 C1016.352,202.35 964.057,213.143 957.29,215.853 C950.522,218.558 898.177,240.638 883.337,243.363 C868.432,246.088 832.837,243.363 832.837,234.763 C832.837,226.223 841.4,212.688 877.925,205.935 C914.4,199.153 955.935,193.773 968.54,185.653 C981.197,177.513 1005.542,158.123 1028.532,156.77" fill="#E28D44"/>
      <path d="M619.915,202.123 C619.915,202.123 557.337,279.993 460.972,269.798 C460.972,269.798 421.81,267.443 412.28,298.433 C402.752,329.388 427.36,344.735 457.192,355.07 C493.402,367.62 621.247,352.888 693.267,254.26 C693.267,254.26 727.28,214.425 700.525,187.463 C661.097,147.788 619.915,202.123 619.915,202.123" fill="#E67955"/>
      <path d="M619.915,202.123 C619.915,202.123 557.337,279.993 460.972,269.798 C460.972,269.798 421.81,267.443 412.28,298.433 C402.752,329.388 427.36,344.735 457.192,355.07 C493.402,367.62 621.247,352.888 693.267,254.26 C693.267,254.26 727.28,214.425 700.525,187.463 C661.097,147.788 619.915,202.123 619.915,202.123 z" fill-opacity="0" stroke="#493020" stroke-width="22.5" stroke-linecap="round" stroke-linejoin="round"/>
      <path d="M608.365,219.595 C608.365,219.595 647.967,217.713 645.155,255.843 C645.155,255.843 632.972,234.87 608.365,219.595" fill="#EC997C"/>
      <path d="M573.86,250.305 C573.86,250.305 613.462,248.46 610.597,286.585 C610.597,286.585 598.432,265.633 573.86,250.305" fill="#EC997C"/>
      <path d="M531.722,269.358 C531.722,269.358 570.095,279.203 556.208,314.85 C556.208,314.85 550.76,291.19 531.722,269.358" fill="#EC997C"/>
      <path d="M481.047,275.828 C481.047,275.828 515.815,294.778 493.63,325.925 C493.63,325.925 494.107,301.633 481.047,275.828" fill="#EC997C"/>
      <path d="M763.843,212.212 C763.843,212.212 701.302,290.1 604.938,279.905 C604.938,279.905 565.737,277.55 556.208,308.54 C546.665,339.477 571.275,354.822 601.158,365.158 C637.318,377.71 765.16,363.015 837.18,264.348 C837.18,264.348 871.245,224.532 844.438,197.55 C805.062,157.895 763.843,212.212 763.843,212.212" fill="#E67955"/>
      <path d="M763.843,212.212 C763.843,212.212 701.302,290.1 604.938,279.905 C604.938,279.905 565.737,277.55 556.208,308.54 C546.665,339.477 571.275,354.822 601.158,365.158 C637.318,377.71 765.16,363.015 837.18,264.348 C837.18,264.348 871.245,224.532 844.438,197.55 C805.062,157.895 763.843,212.212 763.843,212.212 z" fill-opacity="0" stroke="#493020" stroke-width="22.5" stroke-linecap="round" stroke-linejoin="round"/>
      <path d="M752.33,229.703 C752.33,229.703 791.93,227.84 789.068,265.95 C789.068,265.95 776.888,244.958 752.33,229.703" fill="#EC997C"/>
      <path d="M717.825,260.413 C717.825,260.413 757.375,258.548 754.527,296.693 C754.527,296.693 742.36,275.72 717.825,260.413" fill="#EC997C"/>
      <path d="M675.637,279.465 C675.637,279.465 714.01,289.292 700.172,324.94 C700.172,324.94 694.672,301.315 675.637,279.465" fill="#EC997C"/>
      <path d="M624.975,285.915 C624.975,285.915 659.78,304.885 637.545,335.997 C637.545,335.997 638.02,311.74 624.975,285.915" fill="#EC997C"/>
      <path d="M495.865,134.358 L495.462,198.063" fill="#73BA5C"/>
      <path d="M495.865,134.358 L495.462,198.063" fill-opacity="0" stroke="#493020" stroke-width="22.5" stroke-linecap="round" stroke-linejoin="round"/>
      <path d="M637.28,146.997 L579.185,225.27" fill="#73BA5C"/>
      <path d="M637.28,146.997 L579.185,225.27" fill-opacity="0" stroke="#493020" stroke-width="22.5" stroke-linecap="round" stroke-linejoin="round"/>
    </g>
    <path d="M200.427,333.853 L1129.68,333.853" fill-opacity="0" stroke="#493020" stroke-width="22.5" stroke-linecap="round" stroke-linejoin="round"/>
    <path d="M926.405,407.38 C920.677,410.53 810.337,529.532 812.535,540.607 C814.782,551.662 1008.003,563.635 1016.125,561.417 C1024.213,559.205 1036.568,554.792 1038.94,549.625 C1041.365,544.455 963.67,408.665 957.165,407.38 C945.74,405.202 932.102,404.27 926.405,407.38" fill="#BDBEBB"/>
    <path d="M926.405,407.38 C920.677,410.53 810.337,529.532 812.535,540.607 C814.782,551.662 1008.003,563.635 1016.125,561.417 C1024.213,559.205 1036.568,554.792 1038.94,549.625 C1041.365,544.455 963.67,408.665 957.165,407.38 C945.74,405.202 932.102,404.27 926.405,407.38 z" fill-opacity="0" stroke="#493020" stroke-width="22.5" stroke-linecap="round" stroke-linejoin="round"/>
    <path d="M934.315,418.44 L1010.955,554.792" fill="#BDBEBB"/>
    <path d="M934.315,418.44 L1010.955,554.792" fill-opacity="0" stroke="#493020" stroke-width="22.5" stroke-linecap="round" stroke-linejoin="round"/>
    <path d="M845.052,523.185 C845.052,525.277 843.333,526.985 841.275,526.985 C839.218,526.985 837.495,525.277 837.495,523.185 C837.495,521.095 839.218,519.425 841.275,519.425 C843.333,519.425 845.052,521.095 845.052,523.185" fill="#493020"/>
    <path d="M872.968,538.655 C872.968,540.747 871.282,542.435 869.172,542.435 C867.115,542.435 865.407,540.747 865.407,538.655 C865.407,536.58 867.115,534.895 869.172,534.895 C871.282,534.895 872.968,536.58 872.968,538.655" fill="#493020"/>
    <path d="M909.427,528.443 C909.427,530.535 907.77,532.222 905.662,532.222 C903.59,532.222 901.867,530.535 901.867,528.443 C901.867,526.37 903.59,524.662 905.662,524.662 C907.77,524.662 909.427,526.37 909.427,528.443" fill="#493020"/>
    <path d="M937.902,548.342 C937.902,550.415 936.247,552.102 934.137,552.102 C932.065,552.102 930.345,550.415 930.345,548.342 C930.345,546.247 932.065,544.562 934.137,544.562 C936.247,544.562 937.902,546.247 937.902,548.342" fill="#493020"/>
    <path d="M975.22,534.788 C975.22,536.88 973.513,538.568 971.44,538.568 C969.33,538.568 967.66,536.88 967.66,534.788 C967.66,532.713 969.33,531.028 971.44,531.028 C973.513,531.028 975.22,532.713 975.22,534.788" fill="#493020"/>
    <path d="M1014.997,522.643 C1014.997,524.735 1013.312,526.42 1011.202,526.42 C1009.145,526.42 1007.475,524.735 1007.475,522.643 C1007.475,520.55 1009.145,518.863 1011.202,518.863 C1013.312,518.863 1014.997,520.55 1014.997,522.643" fill="#493020"/>
    <path d="M989.017,492.512 C989.017,494.605 987.347,496.292 985.24,496.292 C983.18,496.292 981.46,494.605 981.46,492.512 C981.46,490.422 983.18,488.732 985.24,488.732 C987.347,488.732 989.017,490.422 989.017,492.512" fill="#493020"/>
    <path d="M985.153,461.557 C985.153,463.63 983.482,465.355 981.422,465.355 C979.315,465.355 977.593,463.63 977.593,461.557 C977.593,459.485 979.315,457.795 981.422,457.795 C983.482,457.795 985.153,459.485 985.153,461.557" fill="#493020"/>
    <path d="M963.318,435.315 C963.318,437.388 961.633,439.095 959.575,439.095 C957.465,439.095 955.76,437.388 955.76,435.315 C955.76,433.22 957.465,431.535 959.575,431.535 C961.633,431.535 963.318,433.22 963.318,435.315" fill="#493020"/>
    <path d="M912.203,447.758 C912.203,449.818 910.533,451.503 908.422,451.503 C906.365,451.503 904.643,449.818 904.643,447.758 C904.643,445.668 906.365,443.98 908.422,443.98 C910.533,443.98 912.203,445.668 912.203,447.758" fill="#493020"/>
    <path d="M880.913,491.72 C880.913,493.812 879.193,495.5 877.135,495.5 C875.025,495.5 873.355,493.812 873.355,491.72 C873.355,489.63 875.025,487.943 877.135,487.943 C879.193,487.943 880.913,489.63 880.913,491.72" fill="#493020"/>
    <path d="M920.075,485.375 C920.075,487.467 918.39,489.117 916.332,489.117 C914.222,489.117 912.517,487.467 912.517,485.375 C912.517,483.283 914.222,481.597 916.332,481.597 C918.39,481.597 920.075,483.283 920.075,485.375" fill="#493020"/>
    <path d="M939.133,504.413 C939.133,506.505 937.477,508.21 935.367,508.21 C933.295,508.21 931.575,506.505 931.575,504.413 C931.575,502.34 933.295,500.653 935.367,500.653 C937.477,500.653 939.133,502.34 939.133,504.413" fill="#493020"/>
    <path d="M941.47,464.055 C941.47,466.145 939.8,467.835 937.727,467.835 C935.617,467.835 933.91,466.145 933.91,464.055 C933.91,461.945 935.617,460.275 937.727,460.275 C939.8,460.275 941.47,461.945 941.47,464.055" fill="#493020"/>
  </g>
</svg>
